<svg width="1392" height="649" viewBox="0 0 1392 649" fill="none" xmlns="http://www.w3.org/2000/svg">
<path d="M1166 489L1168.92 497.983H1178.36L1170.72 503.534L1173.64 512.517L1166 506.966L1158.36 512.517L1161.28 503.534L1153.64 497.983H1163.08L1166 489Z" fill="#FDD835"/>
<path d="M150 428L152.919 436.983H162.364L154.723 442.534L157.641 451.517L150 445.966L142.359 451.517L145.277 442.534L137.636 436.983H147.081L150 428Z" fill="#FDD835"/>
<path d="M13 333L15.9187 341.983H25.3637L17.7225 347.534L20.6412 356.517L13 350.966L5.35879 356.517L8.27747 347.534L0.636266 341.983H10.0813L13 333Z" fill="#FDD835"/>
<path d="M1087.5 0L1090.31 8.98278H1099.39L1092.04 14.5344L1094.85 23.5172L1087.5 17.9656L1080.15 23.5172L1082.96 14.5344L1075.61 8.98278H1084.69L1087.5 0Z" fill="#FDD835"/>
<path d="M1341.5 370L1344.31 378.637H1353.39L1346.04 383.975L1348.85 392.613L1341.5 387.275L1334.15 392.613L1336.96 383.975L1329.61 378.637H1338.69L1341.5 370Z" fill="#673AB7"/>
<path d="M1257.5 139L1260.31 147.637H1269.39L1262.04 152.975L1264.85 161.613L1257.5 156.275L1250.15 161.613L1252.96 152.975L1245.61 147.637H1254.69L1257.5 139Z" fill="#673AB7"/>
<path d="M1379.5 573L1382.31 581.637H1391.39L1384.04 586.975L1386.85 595.613L1379.5 590.275L1372.15 595.613L1374.96 586.975L1367.61 581.637H1376.69L1379.5 573Z" fill="#673AB7"/>
<path d="M251 623L253.919 631.983H263.364L255.723 637.534L258.641 646.517L251 640.966L243.359 646.517L246.277 637.534L238.636 631.983H248.081L251 623Z" fill="#673AB7"/>
<path d="M201 164L203.919 172.637H213.364L205.723 177.975L208.641 186.613L201 181.275L193.359 186.613L196.277 177.975L188.636 172.637H198.081L201 164Z" fill="#673AB7"/>
</svg>
